<svg width="32" height="32" viewBox="0 0 32 32" fill="none" xmlns="http://www.w3.org/2000/svg">
<path d="M30.1938 7.90312C30.2625 7.53125 30.0437 7.09062 29.5656 6.99062C29.5187 6.98125 29.4719 6.975 29.425 6.975C29.2375 6.95 28.575 6.85 26.2156 6.46562C21.8344 5.75312 14.8875 7.35625 13.5188 7.69062L11.0375 6.84375C11 6.83125 10.9625 6.82187 10.9219 6.8125L2.7125 5.35937C2.48438 5.31875 2.25 5.38125 2.075 5.53125C1.89688 5.68125 1.79688 5.9 1.79688 6.13125V16.5812C1.79688 16.9656 2.07812 17.2937 2.45937 17.3531L4.37187 17.65L12.3844 26.9656C13.0031 27.6812 13.8625 28.0937 14.7437 28.0937H14.75C15.4156 28.0937 16.0063 27.85 16.3656 27.4281C16.6844 27.0562 16.8375 26.5312 16.8031 25.9594H16.8781C17.5687 25.9375 18.1875 25.6469 18.5688 25.1656C18.7906 24.8875 18.925 24.55 18.9781 24.1875C19.175 24.225 19.375 24.2437 19.5781 24.2437C20.3625 24.2375 21.0688 23.9219 21.5219 23.3844C21.8625 22.9812 22.0438 22.4688 22.0688 21.9281C22.3031 21.9656 22.5406 21.9781 22.7781 21.9562C23.4469 21.9 24.0188 21.6062 24.35 21.1469C24.6438 20.7406 24.7531 20.1969 24.6625 19.6125C24.6375 19.4625 24.6031 19.3125 24.5562 19.1625C24.6594 19.1437 24.7656 19.125 24.8687 19.1062C25.2906 19.0312 25.7281 18.9531 26.1 18.8719L29.2812 19.4906C29.5094 19.5344 29.7469 19.475 29.9281 19.325C30.1094 19.175 30.2125 18.9562 30.2125 18.7219L30.1875 7.925C30.1906 7.91875 30.1906 7.90937 30.1938 7.90312ZM23.075 20.2281C23.0344 20.2844 22.8875 20.375 22.6406 20.3937C22.4375 20.4094 21.9062 20.3937 21.3875 19.8844C21.1 19.6 20.6375 19.5812 20.3312 19.8469C20.0219 20.1125 19.9688 20.5687 20.2062 20.8969C20.5969 21.4406 20.5719 22.075 20.3188 22.375C20.1625 22.5625 19.8781 22.675 19.5562 22.6781C19.1219 22.6812 18.7 22.4875 18.4 22.1406C18.125 21.825 17.65 21.7844 17.3219 22.0469C16.9937 22.3094 16.9344 22.7844 17.1844 23.1219C17.5 23.55 17.4781 24.0187 17.3375 24.1937C17.2469 24.3094 17.0437 24.3875 16.8219 24.3969C16.5031 24.4062 16.1875 24.2781 15.9406 24.0406C15.9094 24.0094 15.8781 23.975 15.8469 23.9437C15.5469 23.6437 15.0625 23.6375 14.7563 23.9312C14.45 24.2219 14.4312 24.7062 14.7156 25.0219C14.7469 25.0594 14.7812 25.0937 14.8156 25.1281C15.1094 25.4562 15.1969 25.7781 15.225 25.95C15.2688 26.2281 15.2 26.3812 15.175 26.4125C15.1469 26.4437 15.0125 26.5312 14.7406 26.5344H14.7375C14.5344 26.5344 14.0188 26.4781 13.5625 25.95L5.3625 16.4094C5.24063 16.2687 5.075 16.175 4.89062 16.1469L3.35625 15.9094V7.05937L10.5906 8.34375L11.8344 8.76875C11.7531 8.83437 11.6688 8.90625 11.5844 8.97812C10.5125 9.9 9.80625 10.7625 9.4875 11.5437C9.1875 12.2812 9.39062 12.7719 9.6125 13.0531C10.125 13.7 11.1375 13.7281 12.0594 13.6719C12.9844 13.6156 14.1219 13.4344 15.325 13.2406C15.475 13.2156 15.6281 13.1937 15.7781 13.1687C18.0594 12.8062 18.6813 13.3375 18.7469 13.4031L18.7656 13.4312L22.7125 19.0312C22.7281 19.0531 22.7438 19.075 22.7625 19.0969C23.15 19.5875 23.1719 20.0937 23.075 20.2281ZM26.2281 17.3031C26.1781 17.2937 26.1281 17.2875 26.0781 17.2875C26.0187 17.2875 25.9625 17.2937 25.9062 17.3062C25.5375 17.3906 25.0531 17.4781 24.5812 17.5625C24.2875 17.6156 23.9844 17.6687 23.7031 17.725L20.0594 12.55C19.95 12.3781 19.6594 12.0219 19.0063 11.7687C18.1594 11.4406 16.9906 11.3937 15.5344 11.625C15.3813 11.65 15.2281 11.675 15.0781 11.6969C14.0094 11.8687 13.0031 12.0281 12.1844 12.0969C11.4937 12.1531 11.1312 12.1219 10.95 12.0875C11.4156 11.0219 13.0688 9.73125 13.8031 9.22812C14.8375 8.975 21.8219 7.33438 25.9625 8.00625C27.1625 8.2 28.0562 8.34375 28.625 8.43125L28.6375 17.7687L26.2281 17.3031Z" fill="white"/>
</svg>
